<svg width="400" height="400" viewBox="0 0 400 400" fill="none" xmlns="http://www.w3.org/2000/svg">
<path d="M135.547 272.904C144.843 272.904 151.483 275.228 155.467 279.876C159.451 284.303 161.443 290.611 161.443 298.8C161.443 302.12 161 305.993 160.115 310.42C159.23 314.625 157.57 318.609 155.135 322.372C152.922 325.913 149.712 329.012 145.507 331.668C141.302 334.103 135.768 335.32 128.907 335.32C118.726 335.32 111.864 332.775 108.323 327.684C104.782 322.372 103.011 315.843 103.011 308.096C103.011 303.669 103.564 299.353 104.671 295.148C105.778 290.943 107.548 287.18 109.983 283.86C112.418 280.54 115.738 277.884 119.943 275.892C124.148 273.9 129.35 272.904 135.547 272.904ZM206.919 335.32C203.821 335.32 200.943 335.209 198.287 334.988C195.631 334.767 193.197 333.992 190.983 332.664C188.991 331.557 187.331 329.897 186.003 327.684C184.897 325.471 184.343 322.372 184.343 318.388C184.343 315.511 184.675 311.969 185.339 307.764C186.225 303.337 187.553 297.693 189.323 290.832C191.094 283.749 193.529 275.117 196.627 264.936C199.726 254.533 203.599 241.917 208.247 227.088C212.895 212.259 218.318 194.995 224.515 175.296C230.934 155.376 238.349 132.247 246.759 105.908C248.309 101.26 250.079 98.4933 252.071 97.608C254.285 96.7227 256.719 96.28 259.375 96.28C264.909 96.28 269.335 96.7227 272.655 97.608C276.197 98.272 278.742 99.3787 280.291 100.928C282.062 102.256 283.169 104.027 283.611 106.24C284.275 108.232 284.607 110.556 284.607 113.212C284.607 116.089 284.275 119.409 283.611 123.172C283.169 126.713 282.173 131.583 280.623 137.78C279.074 143.756 276.861 151.503 273.983 161.02C271.327 170.537 267.675 182.6 263.027 197.208C258.601 211.595 253.067 229.08 246.427 249.664C240.009 270.248 232.373 294.595 223.519 322.704C221.527 328.68 219.425 332.221 217.211 333.328C214.998 334.656 211.567 335.32 206.919 335.32Z" fill="#00FF00"/>
</svg>
