<svg width="600" height="400" viewBox="0 0 600 400" fill="none" xmlns="http://www.w3.org/2000/svg">
<path d="M235.547 272.904C244.843 272.904 251.483 275.228 255.467 279.876C259.451 284.303 261.443 290.611 261.443 298.8C261.443 302.12 261 305.993 260.115 310.42C259.23 314.625 257.57 318.609 255.135 322.372C252.922 325.913 249.712 329.012 245.507 331.668C241.302 334.103 235.768 335.32 228.907 335.32C218.726 335.32 211.864 332.775 208.323 327.684C204.782 322.372 203.011 315.843 203.011 308.096C203.011 303.669 203.564 299.353 204.671 295.148C205.778 290.943 207.548 287.18 209.983 283.86C212.418 280.54 215.738 277.884 219.943 275.892C224.148 273.9 229.35 272.904 235.547 272.904ZM306.919 335.32C303.821 335.32 300.943 335.209 298.287 334.988C295.631 334.767 293.197 333.992 290.983 332.664C288.991 331.557 287.331 329.897 286.003 327.684C284.897 325.471 284.343 322.372 284.343 318.388C284.343 315.511 284.675 311.969 285.339 307.764C286.225 303.337 287.553 297.693 289.323 290.832C291.094 283.749 293.529 275.117 296.627 264.936C299.726 254.533 303.599 241.917 308.247 227.088C312.895 212.259 318.318 194.995 324.515 175.296C330.934 155.376 338.349 132.247 346.759 105.908C348.309 101.26 350.079 98.4933 352.071 97.608C354.285 96.7227 356.719 96.28 359.375 96.28C364.909 96.28 369.335 96.7227 372.655 97.608C376.197 98.272 378.742 99.3787 380.291 100.928C382.062 102.256 383.169 104.027 383.611 106.24C384.275 108.232 384.607 110.556 384.607 113.212C384.607 116.089 384.275 119.409 383.611 123.172C383.169 126.713 382.173 131.583 380.623 137.78C379.074 143.756 376.861 151.503 373.983 161.02C371.327 170.537 367.675 182.6 363.027 197.208C358.601 211.595 353.067 229.08 346.427 249.664C340.009 270.248 332.373 294.595 323.519 322.704C321.527 328.68 319.425 332.221 317.211 333.328C314.998 334.656 311.567 335.32 306.919 335.32Z" fill="#00FF00"/>
</svg>
