<?xml version="1.0" encoding="UTF-8"?>
<svg version="1.1" xmlns="http://www.w3.org/2000/svg" width="500" height="500">
<path d="M0 0 C1.31467758 0.01886765 2.62935516 0.03773529 3.98387146 0.05717468 C6.7480352 0.09782637 9.5120806 0.14298815 12.27612305 0.19116211 C15.79131246 0.25184607 19.30653485 0.29876313 22.82197666 0.34199238 C26.21479765 0.38614345 29.60735628 0.44386274 33 0.5 C34.24818008 0.51468826 35.49636017 0.52937653 36.78236389 0.54450989 C53.88755649 0.87791341 53.88755649 0.87791341 60.05859375 5.07421875 C62.18854795 8.34014852 62.60580524 10.19051036 62.3671875 14.015625 C61.68553982 17.05540521 60.13127088 18.81617919 57.93359375 20.94921875 C54.89146108 22.47028509 51.65311803 22.32351213 48.30859375 22.51171875 C47.6021875 22.55490234 46.89578125 22.59808594 46.16796875 22.64257812 C44.42340838 22.74866626 42.67852678 22.84944764 40.93359375 22.94921875 C40.93359375 23.60921875 40.93359375 24.26921875 40.93359375 24.94921875 C42.22394531 24.98660156 43.51429688 25.02398437 44.84375 25.0625 C46.56122524 25.12819577 48.2786719 25.19464185 49.99609375 25.26171875 C51.26743164 25.29555664 51.26743164 25.29555664 52.56445312 25.33007812 C58.77900395 25.59401658 64.01733941 26.40925529 68.87109375 30.63671875 C70.4494722 34.07201303 70.73131675 37.29419698 69.93359375 40.94921875 C67.75784959 43.64027073 66.02293519 45.40454803 62.93359375 46.94921875 C60.7699918 47.02056051 58.60407983 47.02484589 56.43945312 46.99926758 C55.43898453 46.98984886 55.43898453 46.98984886 54.41830444 46.98023987 C52.9668732 46.96637329 51.51546065 46.95043393 50.06407166 46.93268776 C47.759229 46.90604057 45.45448267 46.88817316 43.14953613 46.87321472 C36.59463056 46.83049618 30.03991181 46.78329106 23.48535156 46.70239258 C19.47597422 46.6535519 15.46686629 46.62478086 11.45722961 46.6086483 C9.93591306 46.59881483 8.41462393 46.58170338 6.89347839 46.55686378 C-6.87361176 46.23204397 -6.87361176 46.23204397 -18.7376709 52.46784973 C-21.49234098 55.6484882 -22.97772509 58.02693465 -23.37890625 62.19921875 C-22.9563424 67.26998499 -21.23616246 70.04168426 -17.41796875 73.3984375 C-12.03188221 77.50268248 -7.50371747 78.08419721 -0.75415039 78.01513672 C1.12952492 78.00049881 1.12952492 78.00049881 3.05125427 77.98556519 C3.71812193 77.97820217 4.38498959 77.97083916 5.07206535 77.96325302 C7.18082329 77.9410655 9.28948897 77.92709003 11.39833069 77.91555786 C17.39271582 77.88214684 23.3869517 77.84095234 29.38110352 77.77783203 C33.05678982 77.73971691 36.73231912 77.71701747 40.40817451 77.70352554 C41.79498212 77.6955799 43.18177153 77.68213097 44.56846428 77.66259384 C56.85685606 77.49266524 69.06958702 78.68848416 80.12109375 84.44921875 C80.78544434 84.79033691 81.44979492 85.13145508 82.13427734 85.48291016 C95.63958702 92.82424125 103.61980833 104.80143276 108.171875 119.1875 C113.08458248 136.99921379 110.58424869 156.30459119 102.07421875 172.484375 C93.47129205 187.08241523 79.96092014 195.30417326 63.93359375 199.94921875 C48.23507395 203.46587106 30.68947526 202.05666397 14.62109375 202.19921875 C13.34685547 202.22056885 12.07261719 202.24191895 10.75976562 202.26391602 C8.96442383 202.27056274 8.96442383 202.27056274 7.1328125 202.27734375 C6.07924561 202.28668945 5.02567871 202.29603516 3.94018555 202.30566406 C0.36428725 201.88172484 -2.00027162 200.81629868 -5.06640625 198.94921875 C-7.73775088 194.94220181 -7.89293906 191.66045579 -7.06640625 186.94921875 C-4.53672151 183.66746557 -2.98909294 182.25678098 0.93359375 180.94921875 C3.32613951 180.72361199 5.72287498 180.5407328 8.12109375 180.38671875 C9.39339844 180.30292969 10.66570312 180.21914063 11.9765625 180.1328125 C12.95238281 180.07222656 13.92820312 180.01164063 14.93359375 179.94921875 C14.93359375 179.28921875 14.93359375 178.62921875 14.93359375 177.94921875 C14.08128174 177.93463623 13.22896973 177.92005371 12.35083008 177.9050293 C9.172882 177.8437859 5.99556829 177.76959846 2.81811523 177.68676758 C1.44583417 177.65362069 0.07342013 177.62555704 -1.29907227 177.6027832 C-3.27778391 177.56905109 -5.25612001 177.51520385 -7.234375 177.4609375 C-8.42313232 177.43475342 -9.61188965 177.40856934 -10.83666992 177.3815918 C-14.33001582 176.91392866 -16.24477385 176.01965186 -19.06640625 173.94921875 C-21.39489672 170.73368429 -21.61097632 167.83900498 -21.06640625 163.94921875 C-19.24092689 161.02438008 -17.19782214 158.5149267 -14.06640625 156.94921875 C-12.12814139 156.81564834 -10.18553478 156.74338454 -8.24316406 156.69970703 C-7.02139465 156.66942413 -5.79962524 156.63914124 -4.54083252 156.60794067 C-3.88590065 156.59370182 -3.23096878 156.57946297 -2.55619049 156.56479263 C-0.50429427 156.51919263 1.54728251 156.46619213 3.59893799 156.41085815 C9.43288743 156.25409616 15.26694089 156.10466975 21.1015625 155.97509766 C24.67040456 155.8953104 28.23866089 155.80166296 31.80692291 155.69927597 C33.82177948 155.64543155 35.83702364 155.60678115 37.85223389 155.56838989 C39.08661194 155.53180267 40.32098999 155.49521545 41.59277344 155.45751953 C42.6748407 155.43166779 43.75690796 155.40581604 44.87176514 155.37918091 C48.39304045 154.88470022 50.84194027 153.6692832 53.93359375 151.94921875 C54.67609375 151.63984375 55.41859375 151.33046875 56.18359375 151.01171875 C58.41487124 149.65701456 58.96425945 148.33527241 59.93359375 145.94921875 C60.26359375 145.28921875 60.59359375 144.62921875 60.93359375 143.94921875 C61.31179497 139.41080415 61.38105618 136.90007641 59.43359375 132.76171875 C55.47155325 128.30442319 50.83436247 125.12123209 44.93359375 123.94921875 C42.73653104 123.82117222 40.53626393 123.74491845 38.3359375 123.69970703 C37.68163254 123.68487274 37.02732758 123.67003845 36.35319519 123.65475464 C34.93514978 123.6229176 33.51706021 123.59300175 32.09893799 123.56479263 C29.84362945 123.51897328 27.58859477 123.46600577 25.33349609 123.41085815 C18.92226347 123.2546269 12.51093992 123.10527204 6.09912109 122.97509766 C2.17138663 122.89484091 -1.75584441 122.80114988 -5.68307495 122.69927597 C-7.16906631 122.66325372 -8.65518519 122.63210628 -10.14138794 122.6062355 C-28.72172268 122.2788562 -42.89441801 118.09968076 -56.3359375 104.859375 C-68.77423585 91.60253341 -72.63302367 74.53452804 -72.34375 56.765625 C-71.62783534 38.98885837 -63.81207681 24.93568433 -50.91015625 12.9453125 C-36.25319293 0.65151899 -18.24674112 -0.3039907 0 0 Z " fill="#FEFEFE" transform="translate(253.06640625,149.05078125)"/>
<path d="M0 0 C3.93459466 2.54109239 4.86981233 4.41674931 6 8.9375 C5.41713041 12.82329724 4.90676019 15.05999014 2.0625 17.8125 C-3.30768737 20.74169311 -9.04059169 20.51218535 -15 19.9375 C-18.25618114 18.74046579 -20.23149369 16.8730729 -22.4375 14.1875 C-23.32316533 10.64483869 -23.00568201 7.43583671 -22 3.9375 C-16.95908732 -2.61568648 -7.4106323 -2.58105356 0 0 Z " fill="#FEFEFE" transform="translate(340,152.0625)"/>
<path d="M0 0 C1.65515625 -0.04253906 1.65515625 -0.04253906 3.34375 -0.0859375 C7.7759325 0.56133668 10.20775594 2.67158737 12.875 6.1875 C13.8483907 9.59436744 13.39660101 11.96791615 12.5 15.375 C10.39103429 18.60874743 8.79205257 20.0656353 5.00390625 20.97265625 C-0.92035761 21.68751194 -5.90475771 21.47321586 -11.5 19.375 C-14.1304706 17.08394497 -14.4975926 15.38366664 -15.4375 12 C-15.51604852 7.44418588 -14.49031483 5.7587773 -11.5 2.375 C-7.64296316 0.40616412 -4.30263457 0.05026442 0 0 Z " fill="#FEFEFE" transform="translate(215.5,305.625)"/>
</svg>
