<svg xmlns="http://www.w3.org/2000/svg" version="1.1" viewBox="0.21974684298038483 0.6503921747207642 952.7802734375 949.3140258789062" width="953.00" height="951.00">
<path fill="#ffcf14" fill-opacity="0.992" d="&#10;  M 953.00 303.88&#10;  L 953.00 643.63&#10;  C 951.96 648.05 952.00 653.00 951.33 656.87&#10;  Q 950.90 659.38 950.89 664.09&#10;  A 1.42 1.00 -84.3 0 1 950.88 664.29&#10;  L 948.71 679.49&#10;  A 0.57 0.33 75.1 0 1 948.68 679.60&#10;  C 947.59 683.42 947.09 688.08 946.33 691.73&#10;  Q 937.91 732.51 919.25 770.50&#10;  C 904.50 800.54 884.21 828.01 860.77 852.86&#10;  Q 845.91 868.62 827.75 882.52&#10;  C 804.14 900.58 780.09 915.56 753.07 926.81&#10;  Q 745.39 930.01 735.51 933.61&#10;  A 3.16 2.97 28.3 0 1 734.91 933.77&#10;  C 732.14 934.22 730.48 935.79 727.90 935.95&#10;  Q 726.81 936.02 724.46 937.17&#10;  C 723.02 937.87 722.21 937.87 720.73 938.02&#10;  A 4.19 4.17 -62.5 0 0 719.15 938.52&#10;  Q 716.61 939.94 714.16 940.00&#10;  A 3.58 3.39 -56.0 0 0 712.90 940.28&#10;  L 709.71 941.63&#10;  A 3.60 3.58 33.8 0 1 708.27 941.91&#10;  Q 705.21 941.85 702.87 943.01&#10;  Q 700.92 943.97 698.95 943.94&#10;  C 695.52 943.90 692.68 946.15 689.31 945.96&#10;  Q 685.45 945.74 681.86 946.94&#10;  Q 678.39 948.10 676.56 947.98&#10;  C 670.22 947.60 663.72 949.95 658.72 949.95&#10;  Q 300.93 950.01 298.25 949.82&#10;  C 296.33 949.68 295.17 949.70 293.57 949.37&#10;  Q 285.67 947.74 278.58 947.88&#10;  A 11.33 11.27 50.7 0 1 275.95 947.61&#10;  C 272.20 946.75 270.44 946.13 266.54 945.97&#10;  Q 263.17 945.84 260.06 944.42&#10;  A 3.92 3.89 -29.9 0 0 258.78 944.08&#10;  L 254.39 943.71&#10;  A 1.16 1.04 57.7 0 1 254.04 943.61&#10;  Q 250.39 941.97 247.53 941.87&#10;  A 4.13 4.06 56.4 0 1 246.10 941.57&#10;  L 242.65 940.20&#10;  A 3.06 2.96 56.0 0 0 241.66 939.99&#10;  C 238.57 939.83 236.16 938.34 233.08 937.72&#10;  Q 230.55 937.21 228.81 936.39&#10;  Q 228.23 936.11 227.22 935.84&#10;  Q 223.90 934.97 210.06 930.02&#10;  Q 201.01 926.79 193.35 923.30&#10;  C 165.80 910.74 141.47 894.94 118.18 875.86&#10;  Q 102.30 862.85 87.62 846.82&#10;  Q 56.34 812.63 35.35 771.73&#10;  Q 31.86 764.94 28.26 756.39&#10;  Q 23.97 746.23 23.88 746.01&#10;  C 20.56 738.16 17.96 730.06 15.28 721.88&#10;  Q 13.32 715.90 12.20 711.42&#10;  Q 10.51 704.63 9.25 700.91&#10;  A 4.00 3.54 36.4 0 1 9.06 700.02&#10;  Q 8.71 696.18 7.51 692.77&#10;  A 8.61 8.10 -59.2 0 1 7.10 690.91&#10;  Q 6.55 685.59 5.40 682.22&#10;  A 4.86 4.53 -58.9 0 1 5.16 681.08&#10;  Q 4.85 676.72 3.97 672.51&#10;  Q 3.15 668.61 2.78 663.89&#10;  Q 2.23 656.81 1.84 654.35&#10;  Q 0.89 648.31 0.98 644.86&#10;  C 1.19 637.22 0.38 628.82 0.37 619.38&#10;  Q 0.23 360.58 0.23 360.00&#10;  Q 0.14 318.38 0.84 302.81&#10;  Q 1.14 296.23 1.91 290.29&#10;  Q 3.01 281.76 3.10 277.73&#10;  A 5.42 5.35 -37.5 0 1 3.28 276.43&#10;  Q 4.94 270.34 5.10 264.29&#10;  A 5.36 5.19 55.4 0 1 5.34 262.85&#10;  Q 6.72 258.35 7.11 254.22&#10;  A 7.65 7.34 -33.5 0 1 7.51 252.44&#10;  Q 8.81 248.76 9.08 245.50&#10;  A 5.99 5.78 -33.2 0 1 9.43 243.96&#10;  C 10.50 241.15 10.96 238.34 11.70 235.76&#10;  Q 15.49 222.42 21.36 206.43&#10;  Q 23.58 200.39 26.44 194.16&#10;  Q 28.49 189.68 31.76 181.99&#10;  Q 33.66 177.53 37.29 171.36&#10;  Q 38.32 169.60 43.17 161.14&#10;  Q 46.36 155.57 50.25 149.25&#10;  Q 67.69 120.93 91.65 96.65&#10;  Q 112.83 75.19 133.71 59.95&#10;  Q 179.08 26.82 233.12 11.30&#10;  C 237.64 10.01 241.37 9.45 245.51 8.30&#10;  Q 246.16 8.12 248.33 7.84&#10;  A 7.26 6.91 -55.9 0 0 249.61 7.56&#10;  Q 253.16 6.47 254.97 6.23&#10;  C 259.81 5.59 263.81 4.37 268.65 4.06&#10;  Q 270.98 3.91 274.33 3.21&#10;  C 276.68 2.73 279.77 2.04 281.92 2.06&#10;  C 287.88 2.11 293.00 1.11 299.07 1.01&#10;  Q 299.30 1.01 307.75 0.98&#10;  Q 458.90 0.57 637.97 0.67&#10;  C 649.95 0.67 656.25 1.22 669.06 2.01&#10;  Q 674.57 2.36 678.29 3.16&#10;  C 682.47 4.07 686.07 3.93 690.55 4.82&#10;  Q 698.28 6.34 705.99 8.09&#10;  Q 756.53 19.59 800.36 47.15&#10;  Q 808.82 52.48 821.91 62.09&#10;  Q 840.53 75.77 860.75 95.75&#10;  Q 864.70 99.65 878.57 115.67&#10;  Q 885.10 123.22 893.08 134.61&#10;  Q 900.23 144.81 906.21 154.52&#10;  Q 932.54 197.25 944.22 245.77&#10;  C 944.98 248.89 945.54 252.85 946.66 256.46&#10;  A 5.39 5.24 35.5 0 1 946.87 257.62&#10;  Q 947.13 261.38 948.55 266.30&#10;  A 1.04 0.55 -73.2 0 1 948.58 266.45&#10;  L 950.80 281.26&#10;  A 1.77 1.64 42.8 0 1 950.82 281.52&#10;  Q 950.90 286.41 951.41 289.78&#10;  C 952.03 293.86 952.25 299.19 953.00 303.88&#10;  Z&#10;  M 846.54 771.46&#10;  Q 855.66 756.98 861.05 746.80&#10;  Q 869.86 730.14 873.89 718.65&#10;  Q 880.21 700.62 882.76 691.14&#10;  C 883.12 689.79 883.13 688.66 883.55 687.69&#10;  Q 884.92 684.53 885.07 681.27&#10;  A 4.18 3.90 -37.8 0 1 885.22 680.34&#10;  Q 886.79 674.56 886.83 673.51&#10;  Q 887.00 668.80 888.08 665.09&#10;  Q 888.82 662.54 889.10 654.95&#10;  A 7.57 6.92 -39.1 0 1 889.33 653.40&#10;  Q 889.55 652.55 889.69 651.54&#10;  Q 890.98 641.69 891.15 623.25&#10;  Q 891.18 619.88 891.19 314.94&#10;  C 891.19 308.08 890.71 300.24 889.46 293.36&#10;  C 888.63 288.78 888.90 284.13 887.41 278.98&#10;  A 9.11 8.76 35.7 0 1 887.06 277.07&#10;  Q 886.69 272.44 885.78 269.72&#10;  C 884.94 267.21 885.00 264.88 884.27 262.70&#10;  Q 883.47 260.32 882.95 258.25&#10;  Q 878.91 242.03 873.02 228.23&#10;  Q 866.18 212.19 857.59 196.61&#10;  Q 855.50 192.82 851.73 186.97&#10;  C 849.03 182.78 844.92 175.85 840.89 170.44&#10;  C 836.67 164.79 832.67 159.39 827.67 153.95&#10;  Q 818.98 144.48 818.64 144.12&#10;  C 813.64 138.74 808.75 134.77 804.15 130.20&#10;  Q 799.27 125.35 792.53 120.02&#10;  Q 780.76 110.70 772.09 104.92&#10;  Q 744.30 86.36 711.05 75.36&#10;  Q 708.00 74.35 706.29 73.99&#10;  Q 703.29 73.35 701.67 72.50&#10;  A 4.19 4.06 -30.3 0 0 699.83 72.05&#10;  C 696.87 72.04 694.19 70.07 690.95 69.91&#10;  C 688.48 69.79 686.51 68.18 684.03 68.04&#10;  Q 682.14 67.93 681.11 67.87&#10;  A 10.92 10.63 54.4 0 1 678.48 67.40&#10;  C 673.39 65.82 668.88 66.17 663.83 65.24&#10;  C 655.10 63.64 649.32 63.92 638.25 63.92&#10;  Q 458.44 63.92 297.75 63.96&#10;  Q 293.34 63.96 286.04 65.66&#10;  A 10.01 9.14 35.1 0 1 284.18 65.90&#10;  L 277.78 66.07&#10;  A 5.45 5.35 33.8 0 0 276.19 66.37&#10;  L 272.08 67.81&#10;  A 2.31 2.25 35.7 0 1 271.21 67.94&#10;  Q 267.39 67.76 263.61 69.51&#10;  A 3.29 3.28 -59.8 0 1 262.52 69.80&#10;  L 259.33 70.05&#10;  A 5.34 5.21 29.5 0 0 257.56 70.52&#10;  Q 254.70 71.87 252.42 72.01&#10;  A 4.71 4.62 -58.5 0 0 250.90 72.39&#10;  C 248.10 73.64 244.98 74.06 241.87 75.12&#10;  Q 227.43 80.02 211.71 87.42&#10;  Q 204.70 90.72 197.88 94.82&#10;  Q 185.20 102.44 184.42 102.94&#10;  Q 161.73 117.39 142.98 136.23&#10;  C 137.54 141.70 131.78 147.31 126.38 153.62&#10;  Q 102.98 180.91 87.37 212.34&#10;  Q 75.59 236.04 68.02 267.54&#10;  Q 67.08 271.44 67.01 272.45&#10;  Q 66.81 275.13 66.13 277.38&#10;  Q 65.35 279.95 64.91 284.80&#10;  Q 64.48 289.57 63.27 295.57&#10;  A 9.56 9.10 -40.6 0 0 63.08 297.44&#10;  C 63.14 306.21 62.00 315.01 62.00 323.59&#10;  Q 62.04 558.46 62.04 615.10&#10;  C 62.04 625.36 62.84 634.83 63.03 644.77&#10;  Q 63.05 645.93 63.56 649.71&#10;  C 64.21 654.56 64.75 656.64 65.10 662.11&#10;  Q 65.34 665.80 66.71 671.04&#10;  C 67.00 672.13 66.89 673.51 67.13 674.66&#10;  Q 71.15 693.97 77.16 711.34&#10;  Q 85.59 735.70 98.42 757.32&#10;  Q 121.62 796.40 155.30 825.67&#10;  Q 180.04 847.17 211.01 862.61&#10;  Q 222.72 868.44 234.43 872.55&#10;  Q 246.09 876.65 258.75 879.99&#10;  Q 258.98 880.05 271.31 882.82&#10;  Q 276.58 884.00 279.82 884.16&#10;  Q 280.33 884.19 288.40 885.29&#10;  Q 296.99 886.47 306.61 886.86&#10;  Q 312.94 887.11 324.89 887.11&#10;  C 424.81 887.11 535.56 887.47 648.71 887.11&#10;  C 653.47 887.10 657.65 886.16 661.81 886.08&#10;  C 667.47 885.97 675.24 884.21 680.91 883.85&#10;  A 6.15 6.01 31.6 0 0 682.85 883.41&#10;  Q 684.63 882.70 687.69 882.17&#10;  Q 689.78 881.80 693.51 880.80&#10;  Q 715.42 874.92 732.66 867.35&#10;  Q 752.76 858.51 774.91 843.63&#10;  Q 788.38 834.59 799.48 824.69&#10;  Q 813.49 812.19 827.04 797.02&#10;  C 830.99 792.60 833.79 788.85 838.60 782.71&#10;  Q 842.93 777.19 846.54 771.46&#10;  Z"/>
<path fill="#ffcf14" fill-opacity="0.992" d="&#10;  M 320.23 814.22&#10;  A 0.13 0.12 -17.1 0 0 320.04 814.12&#10;  L 313.88 817.67&#10;  A 1.73 1.66 -59.6 0 1 313.07 817.90&#10;  Q 310.99 817.93 308.62 819.12&#10;  A 7.34 7.33 30.8 0 1 305.48 819.91&#10;  Q 295.28 820.16 277.00 819.91&#10;  Q 271.09 819.83 265.75 818.50&#10;  Q 264.22 818.12 256.25 817.87&#10;  A 15.13 14.94 50.8 0 1 253.75 817.60&#10;  Q 246.19 816.19 243.75 816.14&#10;  Q 236.51 816.00 224.17 815.96&#10;  A 3.45 3.37 -31.3 0 1 222.66 815.61&#10;  Q 219.98 814.32 217.78 812.73&#10;  Q 208.77 806.21 202.21 797.82&#10;  C 199.99 794.99 196.65 790.57 194.18 786.62&#10;  Q 188.40 777.41 184.83 770.95&#10;  Q 183.01 767.65 185.48 764.45&#10;  Q 187.05 762.42 187.09 762.23&#10;  C 187.62 759.75 186.20 758.89 183.79 757.82&#10;  Q 182.38 757.19 181.22 755.96&#10;  A 1.19 1.18 -45.6 0 1 181.21 754.36&#10;  L 183.82 751.45&#10;  A 1.26 1.21 73.2 0 0 184.12 750.86&#10;  Q 185.88 743.17 183.47 735.84&#10;  A 7.57 7.50 32.6 0 1 183.15 734.41&#10;  Q 182.60 730.09 181.41 727.02&#10;  A 5.43 5.31 33.8 0 1 181.06 725.35&#10;  Q 180.90 721.05 179.61 717.76&#10;  A 5.71 5.49 -59.5 0 1 179.22 716.11&#10;  Q 178.09 702.30 178.95 689.11&#10;  C 179.18 685.54 180.31 682.45 180.98 679.50&#10;  Q 182.74 671.75 188.32 666.56&#10;  A 1.14 0.73 -6.3 0 1 188.48 666.43&#10;  L 191.62 664.56&#10;  A 3.63 3.56 -61.3 0 1 193.23 664.07&#10;  Q 199.25 663.72 200.80 664.10&#10;  Q 213.42 667.18 218.80 667.63&#10;  Q 224.93 668.14 228.78 668.53&#10;  Q 235.81 669.26 238.76 669.27&#10;  Q 253.68 669.36 257.25 668.89&#10;  Q 262.05 668.27 265.44 668.07&#10;  Q 268.54 667.88 270.87 667.40&#10;  C 273.92 666.77 275.68 666.16 278.09 666.05&#10;  C 281.41 665.89 285.42 664.30 289.00 663.92&#10;  C 290.98 663.70 293.37 662.59 295.45 662.18&#10;  Q 298.61 661.56 303.59 660.11&#10;  Q 330.84 652.17 354.10 641.07&#10;  Q 372.49 632.30 396.68 619.16&#10;  Q 418.52 607.29 451.39 589.13&#10;  C 454.60 587.36 454.89 585.26 455.04 580.95&#10;  A 1.79 1.71 -28.2 0 1 455.33 580.06&#10;  C 458.71 575.01 463.84 571.14 471.04 564.80&#10;  Q 481.42 555.65 487.88 544.09&#10;  C 488.77 542.49 489.29 540.59 490.37 538.99&#10;  A 4.05 4.03 -20.4 0 0 490.95 537.73&#10;  Q 491.46 535.75 492.35 533.29&#10;  C 493.08 531.30 493.80 524.42 491.87 522.50&#10;  Q 490.91 521.55 487.92 520.05&#10;  C 485.00 518.59 484.97 518.08 484.91 514.77&#10;  C 484.81 509.31 481.53 508.42 477.32 506.70&#10;  C 475.50 505.95 473.36 505.75 471.31 504.48&#10;  A 3.13 3.11 -24.4 0 0 470.21 504.07&#10;  C 468.23 503.76 466.14 502.61 463.68 501.63&#10;  Q 459.86 500.11 437.07 491.68&#10;  Q 410.92 482.01 383.83 474.49&#10;  A 7.23 6.95 53.7 0 0 382.39 474.24&#10;  Q 376.21 473.80 368.51 473.99&#10;  Q 364.58 474.08 361.32 473.28&#10;  Q 356.05 471.98 343.46 466.36&#10;  A 5.22 5.01 -26.2 0 0 342.42 466.03&#10;  Q 340.04 465.55 338.27 464.55&#10;  A 4.48 4.44 60.3 0 0 336.19 463.97&#10;  Q 333.76 463.90 329.67 462.68&#10;  A 11.63 11.29 54.9 0 0 327.31 462.23&#10;  C 322.40 461.81 316.56 462.18 311.18 461.45&#10;  Q 305.22 460.65 303.65 460.38&#10;  C 300.60 459.85 298.15 459.92 294.45 459.85&#10;  A 13.18 13.10 -37.1 0 1 291.44 459.44&#10;  Q 284.50 457.66 277.47 457.91&#10;  A 11.88 11.68 -38.4 0 1 274.13 457.55&#10;  Q 267.92 455.94 263.04 455.90&#10;  C 258.54 455.86 254.78 453.88 250.23 453.94&#10;  C 245.99 453.99 242.13 451.92 238.20 451.94&#10;  C 233.81 451.97 230.04 449.86 225.82 449.90&#10;  A 5.06 4.98 -31.4 0 1 223.59 449.38&#10;  Q 222.64 448.90 217.05 447.60&#10;  Q 211.93 446.41 203.98 443.23&#10;  Q 191.44 438.22 182.29 427.94&#10;  A 5.68 5.66 -20.8 0 0 178.05 426.04&#10;  L 174.03 426.04&#10;  A 3.16 3.08 -26.9 0 1 172.24 425.48&#10;  C 165.89 421.06 161.66 415.36 156.11 407.21&#10;  Q 151.29 400.15 147.14 395.65&#10;  A 2.12 2.11 -53.2 0 1 146.80 393.27&#10;  Q 150.23 386.27 150.22 378.46&#10;  A 2.87 1.92 -73.3 0 0 150.18 378.09&#10;  L 148.76 371.08&#10;  A 1.35 0.80 -75.7 0 0 148.71 370.91&#10;  Q 146.39 365.40 145.08 363.43&#10;  Q 142.76 359.94 140.41 356.55&#10;  A 2.93 2.89 35.9 0 1 140.00 354.09&#10;  Q 142.81 344.28 143.12 335.34&#10;  A 6.13 6.11 54.4 0 1 143.36 333.87&#10;  Q 146.00 324.63 144.23 314.90&#10;  A 7.87 7.60 44.0 0 1 144.15 312.62&#10;  Q 144.71 307.86 145.59 305.07&#10;  Q 149.02 294.26 154.09 285.56&#10;  Q 155.61 282.96 158.75 278.28&#10;  Q 161.09 274.80 164.01 271.42&#10;  Q 176.94 256.46 193.95 245.44&#10;  C 212.71 233.28 233.02 224.04 254.52 216.68&#10;  C 257.04 215.82 259.35 215.38 261.54 214.33&#10;  C 262.31 213.96 263.42 213.98 264.24 213.63&#10;  Q 267.70 212.15 269.90 211.95&#10;  A 3.85 3.69 -59.0 0 0 271.15 211.61&#10;  Q 274.40 210.08 276.90 209.87&#10;  A 1.20 0.96 -51.2 0 0 277.22 209.80&#10;  L 281.28 208.31&#10;  A 3.09 2.91 31.8 0 1 282.22 208.12&#10;  Q 285.10 207.99 288.97 206.77&#10;  A 0.48 0.48 0.0 0 0 289.24 206.07&#10;  Q 288.41 204.64 288.17 204.55&#10;  Q 284.14 203.12 280.25 200.25&#10;  Q 279.70 199.84 279.63 199.54&#10;  A 0.98 0.78 -12.8 0 1 280.40 198.57&#10;  Q 282.34 198.13 285.08 197.91&#10;  A 6.70 6.57 33.5 0 0 286.43 197.65&#10;  Q 291.34 196.17 295.69 195.90&#10;  A 4.46 4.30 31.4 0 0 297.09 195.59&#10;  Q 299.50 194.61 302.48 194.13&#10;  Q 304.19 193.85 307.88 192.99&#10;  C 322.24 189.63 339.28 185.15 355.31 180.08&#10;  Q 395.87 167.26 404.76 164.01&#10;  Q 425.15 156.56 438.20 152.58&#10;  Q 445.95 150.21 467.11 142.96&#10;  Q 480.73 138.29 496.29 134.09&#10;  C 506.78 131.25 517.22 127.81 527.95 125.07&#10;  Q 530.78 124.35 533.78 123.90&#10;  C 537.35 123.36 540.14 122.23 544.01 121.82&#10;  A 10.10 9.08 31.4 0 0 545.40 121.56&#10;  Q 549.22 120.51 552.08 120.14&#10;  Q 557.04 119.49 558.81 119.00&#10;  C 562.72 117.92 566.53 117.98 571.06 117.31&#10;  Q 580.54 115.91 587.50 115.63&#10;  Q 588.43 115.59 589.34 115.42&#10;  Q 590.76 115.14 591.19 115.12&#10;  C 598.66 114.84 605.09 114.05 612.28 114.00&#10;  Q 626.97 113.90 637.72 113.95&#10;  Q 643.49 113.98 650.15 114.81&#10;  Q 659.52 115.98 662.59 116.03&#10;  Q 666.16 116.08 669.37 116.81&#10;  C 672.65 117.54 678.80 117.87 683.08 118.93&#10;  C 686.22 119.70 689.37 119.89 692.29 120.53&#10;  Q 714.04 125.33 728.59 128.93&#10;  C 731.21 129.58 732.22 130.49 733.52 133.01&#10;  C 740.36 146.25 745.52 156.29 754.64 166.91&#10;  C 759.19 172.21 763.76 177.16 766.68 183.56&#10;  Q 767.83 186.06 771.85 196.93&#10;  C 773.00 200.05 775.08 202.94 777.69 205.82&#10;  Q 785.05 213.96 788.50 219.52&#10;  Q 791.71 224.68 794.13 233.86&#10;  C 795.40 238.68 795.26 243.93 794.89 248.69&#10;  C 794.60 252.41 788.65 257.27 785.26 259.75&#10;  Q 784.99 259.94 773.92 267.26&#10;  Q 767.70 271.37 762.36 274.37&#10;  Q 753.80 279.16 750.45 280.95&#10;  Q 748.02 282.24 744.96 283.28&#10;  A 5.50 5.42 44.9 0 1 741.41 283.26&#10;  Q 737.44 281.88 734.15 281.93&#10;  Q 731.39 281.98 728.72 281.14&#10;  Q 724.36 279.76 718.10 279.91&#10;  A 12.32 12.21 50.3 0 1 715.23 279.63&#10;  Q 708.21 278.10 698.00 278.00&#10;  Q 674.52 277.78 655.49 278.11&#10;  C 649.27 278.22 640.22 280.08 633.01 279.93&#10;  C 625.94 279.78 619.58 279.95 612.80 281.51&#10;  A 13.41 13.10 -51.6 0 1 610.05 281.86&#10;  Q 603.13 281.99 602.23 282.02&#10;  C 598.77 282.13 596.80 282.79 593.20 283.65&#10;  Q 591.03 284.18 589.19 282.84&#10;  Q 581.44 277.21 579.78 276.66&#10;  Q 576.18 275.45 574.08 274.64&#10;  A 8.40 8.27 -33.3 0 0 571.21 274.07&#10;  Q 554.78 273.76 548.10 274.12&#10;  Q 546.42 274.21 543.44 275.36&#10;  A 7.91 7.84 33.1 0 1 540.91 275.88&#10;  C 538.95 275.96 536.56 275.91 534.28 276.95&#10;  Q 532.12 277.92 529.54 277.96&#10;  C 526.87 278.00 526.10 278.47 523.86 279.41&#10;  Q 522.75 279.87 521.54 279.87&#10;  Q 518.62 279.87 515.98 281.51&#10;  A 1.86 1.75 -60.9 0 1 515.17 281.77&#10;  L 512.41 282.01&#10;  A 3.19 3.09 -60.9 0 0 511.09 282.41&#10;  Q 508.73 283.73 507.28 283.84&#10;  Q 505.37 283.99 503.72 284.94&#10;  C 501.44 286.25 499.33 285.60 497.12 286.93&#10;  Q 495.35 287.99 492.59 287.98&#10;  A 2.56 2.45 34.2 0 0 491.76 288.12&#10;  L 486.96 289.81&#10;  A 2.37 2.11 31.6 0 1 486.29 289.93&#10;  L 474.66 290.16&#10;  A 4.34 4.32 19.5 0 0 471.45 291.68&#10;  L 468.77 294.83&#10;  A 2.63 2.55 -81.4 0 1 467.86 295.52&#10;  Q 463.10 297.65 461.53 298.01&#10;  C 459.72 298.42 458.44 299.66 456.34 299.90&#10;  C 454.25 300.15 453.49 300.54 451.82 301.39&#10;  A 4.95 4.94 -57.9 0 1 449.51 301.92&#10;  Q 446.76 301.88 444.45 303.08&#10;  C 441.56 304.58 438.36 303.59 435.34 305.11&#10;  Q 433.51 306.03 431.54 305.96&#10;  Q 428.33 305.85 425.11 307.38&#10;  A 3.89 3.71 28.7 0 1 423.84 307.72&#10;  L 407.06 309.14&#10;  A 1.80 1.80 0.0 0 0 405.50 311.51&#10;  Q 407.30 316.78 406.92 322.96&#10;  A 3.39 3.31 -58.6 0 0 407.35 324.82&#10;  C 409.85 329.26 415.00 332.96 419.51 335.04&#10;  Q 425.59 337.83 433.76 339.98&#10;  Q 443.91 342.64 452.13 344.64&#10;  Q 455.98 345.59 462.52 348.06&#10;  Q 467.44 349.92 472.35 353.50&#10;  Q 481.35 360.09 485.20 370.50&#10;  C 486.33 373.56 492.76 374.96 497.72 376.24&#10;  A 7.72 7.50 -24.0 0 1 498.92 376.68&#10;  C 500.67 377.52 502.45 377.88 504.09 378.66&#10;  Q 525.95 388.96 539.61 408.58&#10;  C 544.66 415.82 548.15 423.87 550.32 432.40&#10;  Q 552.18 439.74 553.01 450.80&#10;  A 4.38 4.11 -59.6 0 0 553.28 451.99&#10;  C 554.20 454.32 555.76 458.01 558.66 457.95&#10;  C 560.53 457.92 561.85 456.32 563.48 456.08&#10;  C 566.29 455.66 567.76 455.61 569.15 458.38&#10;  C 571.42 462.91 572.98 466.40 575.62 470.66&#10;  C 580.59 478.68 587.25 486.94 592.41 494.75&#10;  Q 601.02 507.79 602.64 510.57&#10;  Q 605.06 514.72 605.60 520.62&#10;  Q 606.00 525.02 606.67 537.20&#10;  C 607.23 547.23 606.67 560.50 607.30 571.18&#10;  C 607.70 578.11 606.94 584.30 606.94 591.39&#10;  A 3.49 3.46 58.0 0 1 606.60 592.89&#10;  Q 606.37 593.37 604.55 601.65&#10;  Q 603.66 605.70 600.58 615.33&#10;  C 595.90 630.01 588.37 645.20 580.43 656.77&#10;  Q 551.58 698.76 510.76 729.82&#10;  Q 482.86 751.05 456.90 765.88&#10;  Q 434.42 778.73 416.62 786.86&#10;  Q 395.32 796.59 393.18 797.40&#10;  Q 392.12 797.80 391.03 798.10&#10;  C 389.53 798.52 388.41 799.64 386.79 799.89&#10;  Q 385.40 800.10 384.56 800.64&#10;  C 382.61 801.88 380.31 801.93 378.53 803.05&#10;  Q 377.26 803.86 376.15 803.93&#10;  C 374.17 804.07 372.51 805.49 370.60 805.83&#10;  Q 368.52 806.20 367.43 806.89&#10;  C 365.40 808.18 363.47 807.62 361.50 808.81&#10;  C 359.30 810.15 356.51 809.70 354.54 810.87&#10;  C 352.17 812.28 350.12 811.57 347.81 812.86&#10;  C 345.19 814.32 342.63 813.49 340.03 814.86&#10;  Q 337.80 816.04 334.75 816.00&#10;  A 3.26 3.20 33.4 0 0 333.43 816.26&#10;  L 330.51 817.53&#10;  A 4.12 4.10 -57.1 0 1 328.90 817.88&#10;  Q 325.15 817.95 321.95 818.24&#10;  A 1.96 1.86 -81.6 0 1 320.08 815.58&#10;  Q 320.26 815.13 320.23 814.22&#10;  Z"/>
</svg>